<svg width="32" height="32" viewBox="0 0 32 32" fill="none" xmlns="http://www.w3.org/2000/svg">
<path d="M5.33203 18.667H29.332" stroke="#0085FF" stroke-width="2" stroke-linecap="round" stroke-linejoin="round"/>
<path d="M6.66797 29.3337L7.90872 28.0929C8.61374 27.3879 8.96625 27.0354 9.41042 26.835C9.8546 26.6345 10.3522 26.6034 11.3473 26.5413L15.6838 26.2702C17.8152 26.137 18.8809 26.0703 19.8186 25.6201C20.7565 25.1697 21.4748 24.3795 22.9112 22.7994L26.668 18.667H22.0013L19.6108 21.0575C19.4518 21.2165 19.3722 21.2961 19.2896 21.3662C18.8642 21.7275 18.3362 21.9462 17.7801 21.9915C17.6718 22.0003 17.5594 22.0003 17.3346 22.0003M17.3346 22.0003C17.3346 21.3807 17.3346 21.071 17.2834 20.8134C17.073 19.7555 16.2461 18.9286 15.1882 18.7182C14.9306 18.667 14.6209 18.667 14.0013 18.667H12.9593C11.5659 18.667 10.8692 18.667 10.2159 18.835C9.72929 18.9601 9.2628 19.1533 8.83025 19.4089C8.24953 19.7521 7.75689 20.2447 6.77162 21.2301L2.66797 25.3337M17.3346 22.0003H12.668" stroke="#0085FF" stroke-width="2" stroke-linecap="round" stroke-linejoin="round"/>
<path d="M6.66797 15.3337C6.66797 9.44261 11.4436 4.66699 17.3346 4.66699M17.3346 4.66699C23.2257 4.66699 28.0013 9.44261 28.0013 15.3337M17.3346 4.66699V2.66699" stroke="#0085FF" stroke-width="2" stroke-linecap="round" stroke-linejoin="round"/>
</svg>
