<svg width="32" height="32" viewBox="0 0 32 32" fill="none" xmlns="http://www.w3.org/2000/svg">
<path d="M29.3346 5.33301V6.11406C29.3346 6.33887 29.3346 6.45129 29.3288 6.55959C29.2793 7.46958 28.9208 8.33542 28.3122 9.01381C28.2397 9.09455 28.1602 9.17403 28.0013 9.33301C27.8424 9.49198 27.7629 9.57146 27.6821 9.6439C27.0037 10.2524 26.1378 10.6111 25.2278 10.6605C25.1196 10.6663 25.0072 10.6663 24.7824 10.6663H21.8869C21.6621 10.6663 21.5497 10.6663 21.4414 10.6605C20.5314 10.6111 19.6656 10.2524 18.9872 9.6439C18.9064 9.57146 18.8269 9.49198 18.668 9.33301" stroke="#0085FF" stroke-width="2" stroke-linecap="round" stroke-linejoin="round"/>
<path d="M27.332 10L26.6654 13.3333L25.7424 16.5636C25.4702 17.5165 25.332 18.5028 25.332 19.4939V19.9087C25.332 20.4133 25.3679 20.9175 25.4392 21.4171L25.9987 26.6667" stroke="#0085FF" stroke-width="2" stroke-linecap="round" stroke-linejoin="round"/>
<path d="M4.66797 10L5.33464 13.3333L6.25756 16.5636C6.52984 17.5165 6.66797 18.5028 6.66797 19.4939V19.9087C6.66797 20.4133 6.63214 20.9175 6.56077 21.4171L6.0013 26.6667" stroke="#0085FF" stroke-width="2" stroke-linecap="round" stroke-linejoin="round"/>
<path d="M2.66797 5.33301V6.11406C2.66797 6.33887 2.66797 6.45129 2.67385 6.55959C2.72324 7.46958 3.08188 8.33542 3.69041 9.01381C3.76285 9.09455 3.84233 9.17403 4.0013 9.33301C4.16028 9.49198 4.23976 9.57146 4.3205 9.6439C4.99889 10.2524 5.86473 10.6111 6.77472 10.6605C6.88302 10.6663 6.99544 10.6663 7.22025 10.6663H10.1157C10.3405 10.6663 10.4529 10.6663 10.5612 10.6605C11.4712 10.6111 12.337 10.2524 13.0154 9.6439C13.0962 9.57146 13.1757 9.49198 13.3346 9.33301" stroke="#0085FF" stroke-width="2" stroke-linecap="round" stroke-linejoin="round"/>
<path d="M20 17.3337H18.6667C17.1939 17.3337 16 16.1398 16 14.667C16 16.1398 14.8061 17.3337 13.3333 17.3337H12" stroke="#0085FF" stroke-width="2" stroke-linecap="round" stroke-linejoin="round"/>
<path d="M20 23.9997H18.6667C17.1939 23.9997 16 22.8058 16 21.333C16 22.8058 14.8061 23.9997 13.3333 23.9997H12" stroke="#0085FF" stroke-width="2" stroke-linecap="round" stroke-linejoin="round"/>
</svg>
