<svg width="32" height="32" viewBox="0 0 32 32" fill="none" xmlns="http://www.w3.org/2000/svg">
<path d="M2.68934 27.0731C4.1942 29.2258 10.7447 30.9158 13.8384 26.8857C17.1846 28.4862 22.704 27.9901 27.1976 25.4842C27.8225 25.1358 28.4137 24.6959 28.7757 24.0787C29.5931 22.6854 29.6124 20.7522 28.1213 17.8998C25.6353 11.694 21.1641 6.24651 19.3589 4.05583C18.9882 3.71787 16.6237 3.23791 15.1817 2.77672C14.5448 2.57936 13.3588 2.44852 11.9403 4.31783C11.2678 5.20406 8.2129 7.3806 12.089 8.84428C12.6895 8.99708 13.1309 9.27886 15.8705 8.77839C16.2273 8.71648 17.1181 8.77839 17.7458 9.88022L19.0569 11.7552C19.1789 11.9297 19.2581 12.1305 19.2824 12.3421C19.5121 14.3406 19.5046 16.8427 20.6189 18.1098C18.8978 16.8653 14.4002 15.3871 11.0114 19.5931M2.66797 17.253C4.2789 15.721 8.94808 13.3009 13.8893 16.6951" stroke="#0085FF" stroke-width="2" stroke-linecap="round" stroke-linejoin="round"/>
</svg>
