<svg width="32" height="32" viewBox="0 0 32 32" fill="none" xmlns="http://www.w3.org/2000/svg">
<path d="M16.0013 29.3337C23.3651 29.3337 29.3346 23.3641 29.3346 16.0003C29.3346 8.63653 23.3651 2.66699 16.0013 2.66699C8.63751 2.66699 2.66797 8.63653 2.66797 16.0003C2.66797 23.3641 8.63751 29.3337 16.0013 29.3337Z" stroke="#0085FF" stroke-width="2"/>
<path d="M10.84 15.4636L16.172 8.27721C16.589 7.71517 17.3706 8.06499 17.3706 8.81365V14.376C17.3706 14.8244 17.6772 15.188 18.0553 15.188H20.6486C21.2378 15.188 21.5518 16.0119 21.1626 16.5364L15.8306 23.7228C15.4136 24.2848 14.632 23.9351 14.632 23.1864V17.624C14.632 17.1756 14.3254 16.812 13.9473 16.812H11.354C10.7648 16.812 10.4508 15.9881 10.84 15.4636Z" stroke="#0085FF" stroke-width="2" stroke-linecap="round" stroke-linejoin="round"/>
</svg>
